<svg width="256" height="256" viewBox="0 0 256 256" xmlns="http://www.w3.org/2000/svg">
  <!-- Background -->
  <rect width="256" height="256" rx="32" fill="#6772e5"></rect>
  
  <!-- Palette shape -->
  <path d="M128 48C89.34 48 58 79.34 58 118c0 38.66 31.34 70 70 70h42c11.05 0 20-8.95 20-20s-8.95-20-20-20h-42c-16.54 0-30-13.46-30-30s13.46-30 30-30c38.66 0 70 31.34 70 70 0 5.52 4.48 10 10 10s10-4.48 10-10c0-38.66-31.34-70-70-70z" fill="#ffffff"></path>
  
  <!-- Paint dots -->
  <circle cx="98" cy="98" r="8" fill="#ff6b6b"></circle>
  <circle cx="128" cy="88" r="8" fill="#4ecdc4"></circle>
  <circle cx="158" cy="98" r="8" fill="#45b7d1"></circle>
  <circle cx="148" cy="128" r="8" fill="#96ceb4"></circle>
  <circle cx="118" cy="138" r="8" fill="#feca57"></circle>
  <circle cx="88" cy="128" r="8" fill="#ff9ff3"></circle>
  
  <!-- Brush handle -->
  <rect x="180" y="140" width="8" height="40" rx="4" fill="#8b5a3c" transform="rotate(45 184 160)"></rect>
  
  <!-- Brush tip -->
  <ellipse cx="190" cy="130" rx="6" ry="12" fill="#2c3e50" transform="rotate(45 190 130)"></ellipse>
</svg>